<?xml version="1.0" standalone="no"?>
<!DOCTYPE svg PUBLIC "-//W3C//DTD SVG 20010904//EN"
 "http://www.w3.org/TR/2001/REC-SVG-20010904/DTD/svg10.dtd">
<svg version="1.0" xmlns="http://www.w3.org/2000/svg"
 width="4096.000000pt" height="4096.000000pt" viewBox="0 0 4096.000000 4096.000000"
 preserveAspectRatio="xMidYMid meet">

<g transform="translate(0.000000,4096.000000) scale(0.100000,-0.100000)"
fill="#ffffff" stroke="none">
<path d="M13900 33273 c-260 -25 -420 -57 -620 -123 -306 -100 -544 -230 -811
-441 -130 -102 -10510 -10479 -10613 -10609 -313 -397 -493 -820 -558 -1310
-16 -123 -16 -497 0 -620 44 -330 155 -672 307 -941 60 -106 164 -259 251
-369 38 -47 1022 -1040 2226 -2245 l2158 -2160 -1200 -1200 -1200 -1200 907
-907 908 -908 1200 1200 1200 1200 2155 -2154 c1502 -1501 2186 -2178 2259
-2235 383 -303 776 -473 1261 -547 142 -22 528 -25 665 -6 498 71 919 251
1305 558 47 37 759 740 1583 1563 l1497 1496 -907 907 -908 908 -1445 -1445
-1445 -1445 -5117 5118 -5116 5117 5117 5122 5117 5122 5122 -5122 5122 -5122
-958 -957 -957 -958 905 -905 905 -905 1006 1007 c1006 1008 1093 1100 1228
1302 439 656 549 1483 297 2235 -97 291 -238 547 -442 806 -88 112 -10491
10514 -10604 10604 -418 331 -885 520 -1400 566 -107 9 -320 11 -400 3z"/>
<path d="M26700 33273 c-260 -25 -420 -57 -620 -123 -306 -100 -545 -230 -811
-441 -71 -56 -577 -554 -1597 -1573 l-1492 -1491 905 -905 905 -905 1443 1443
1442 1442 5122 -5123 5122 -5122 -5123 -5117 -5123 -5116 -5116 5116 -5117
5117 962 963 963 962 -908 907 -907 908 -1013 -1015 c-558 -558 -1044 -1053
-1081 -1100 -312 -394 -493 -820 -558 -1310 -16 -123 -16 -497 0 -620 44 -330
155 -672 307 -941 60 -106 164 -259 251 -369 103 -130 10483 -10507 10613
-10609 384 -303 776 -473 1261 -547 142 -22 528 -25 665 -6 498 71 917 250
1305 558 131 104 10508 10484 10609 10613 398 504 592 1086 568 1703 -22 566
-211 1070 -573 1528 -38 47 -1022 1040 -2226 2245 l-2158 2160 1200 1200 1200
1200 -908 908 -907 907 -1200 -1200 -1200 -1200 -2160 2158 c-1188 1188 -2198
2189 -2245 2226 -417 331 -885 520 -1400 566 -107 9 -320 11 -400 3z"/>
</g>
</svg>
